<?xml version="1.0" encoding="UTF-8" standalone="no"?>
<!-- Created with Inkscape (http://www.inkscape.org/) -->

<svg
   xmlns:dc="http://purl.org/dc/elements/1.1/"
   xmlns:cc="http://creativecommons.org/ns#"
   xmlns:rdf="http://www.w3.org/1999/02/22-rdf-syntax-ns#"
   xmlns:svg="http://www.w3.org/2000/svg"
   xmlns="http://www.w3.org/2000/svg"
   xmlns:xlink="http://www.w3.org/1999/xlink"
   xmlns:sodipodi="http://sodipodi.sourceforge.net/DTD/sodipodi-0.dtd"
   xmlns:inkscape="http://www.inkscape.org/namespaces/inkscape"
   width="141.19534"
   height="135.41844"
   id="svg2"
   version="1.1"
   inkscape:version="0.48.4 r9939"
   sodipodi:docname="telegps.svg">
  <defs
     id="defs4">
    <radialGradient
       inkscape:collect="always"
       xlink:href="#linearGradient3169"
       id="radialGradient3175"
       cx="951.68713"
       cy="2305.2668"
       fx="951.68713"
       fy="2305.2668"
       r="951.68701"
       gradientTransform="matrix(1,0,0,1.2664529,0,-321.14689)"
       gradientUnits="userSpaceOnUse" />
    <linearGradient
       id="linearGradient3169">
      <stop
         style="stop-color:#ff8a00;stop-opacity:1;"
         offset="0"
         id="stop3171" />
      <stop
         id="stop3445"
         offset="0.71698111"
         style="stop-color:#c24573;stop-opacity:0.98039216;" />
      <stop
         style="stop-color:#8500e7;stop-opacity:0.96078432;"
         offset="1"
         id="stop3173" />
    </linearGradient>
    <radialGradient
       inkscape:collect="always"
       xlink:href="#linearGradient3165"
       id="radialGradient3171"
       cx="951.68713"
       cy="1205.2668"
       fx="951.68713"
       fy="1205.2668"
       r="951.68701"
       gradientTransform="matrix(1,0,0,1.2664529,0,-321.14689)"
       gradientUnits="userSpaceOnUse" />
    <linearGradient
       id="linearGradient3165">
      <stop
         style="stop-color:#000000;stop-opacity:1;"
         offset="0"
         id="stop3167" />
      <stop
         style="stop-color:#000000;stop-opacity:0;"
         offset="1"
         id="stop3169" />
    </linearGradient>
    <radialGradient
       inkscape:collect="always"
       xlink:href="#linearGradient3169"
       id="radialGradient2838"
       gradientUnits="userSpaceOnUse"
       gradientTransform="matrix(1,0,0,1.2664529,0,-321.14689)"
       cx="951.68713"
       cy="2305.2668"
       fx="951.68713"
       fy="2305.2668"
       r="951.68701" />
    <linearGradient
       id="linearGradient3181">
      <stop
         style="stop-color:#ff8a00;stop-opacity:1;"
         offset="0"
         id="stop3183" />
      <stop
         id="stop3185"
         offset="0.71698111"
         style="stop-color:#c24573;stop-opacity:0.98039216;" />
      <stop
         style="stop-color:#8500e7;stop-opacity:0.96078432;"
         offset="1"
         id="stop3187" />
    </linearGradient>
    <radialGradient
       inkscape:collect="always"
       xlink:href="#linearGradient3165"
       id="radialGradient2840"
       gradientUnits="userSpaceOnUse"
       gradientTransform="matrix(1,0,0,1.2664529,0,-321.14689)"
       cx="951.68713"
       cy="1205.2668"
       fx="951.68713"
       fy="1205.2668"
       r="951.68701" />
    <linearGradient
       id="linearGradient3190">
      <stop
         style="stop-color:#000000;stop-opacity:1;"
         offset="0"
         id="stop3192" />
      <stop
         style="stop-color:#000000;stop-opacity:0;"
         offset="1"
         id="stop3194" />
    </linearGradient>
    <radialGradient
       inkscape:collect="always"
       xlink:href="#linearGradient3169"
       id="radialGradient2830"
       gradientUnits="userSpaceOnUse"
       gradientTransform="matrix(1,0,0,1.2664529,0,-321.14689)"
       cx="951.68713"
       cy="2305.2668"
       fx="951.68713"
       fy="2305.2668"
       r="951.68701" />
    <linearGradient
       id="linearGradient3197">
      <stop
         style="stop-color:#ff8a00;stop-opacity:1;"
         offset="0"
         id="stop3199" />
      <stop
         id="stop3201"
         offset="0.71698111"
         style="stop-color:#c24573;stop-opacity:0.98039216;" />
      <stop
         style="stop-color:#8500e7;stop-opacity:0.96078432;"
         offset="1"
         id="stop3203" />
    </linearGradient>
    <radialGradient
       inkscape:collect="always"
       xlink:href="#linearGradient3165"
       id="radialGradient2832"
       gradientUnits="userSpaceOnUse"
       gradientTransform="matrix(1,0,0,1.2664529,0,-321.14689)"
       cx="951.68713"
       cy="1205.2668"
       fx="951.68713"
       fy="1205.2668"
       r="951.68701" />
    <linearGradient
       id="linearGradient3206">
      <stop
         style="stop-color:#000000;stop-opacity:1;"
         offset="0"
         id="stop3208" />
      <stop
         style="stop-color:#000000;stop-opacity:0;"
         offset="1"
         id="stop3210" />
    </linearGradient>
    <radialGradient
       inkscape:collect="always"
       xlink:href="#linearGradient3169"
       id="radialGradient2834"
       gradientUnits="userSpaceOnUse"
       gradientTransform="matrix(1,0,0,1.2664529,0,-321.14689)"
       cx="951.68713"
       cy="2305.2668"
       fx="951.68713"
       fy="2305.2668"
       r="951.68701" />
    <linearGradient
       id="linearGradient3213">
      <stop
         style="stop-color:#ff8a00;stop-opacity:1;"
         offset="0"
         id="stop3215" />
      <stop
         id="stop3217"
         offset="0.71698111"
         style="stop-color:#c24573;stop-opacity:0.98039216;" />
      <stop
         style="stop-color:#8500e7;stop-opacity:0.96078432;"
         offset="1"
         id="stop3219" />
    </linearGradient>
    <radialGradient
       inkscape:collect="always"
       xlink:href="#linearGradient3165"
       id="radialGradient2836"
       gradientUnits="userSpaceOnUse"
       gradientTransform="matrix(1,0,0,1.2664529,0,-321.14689)"
       cx="951.68713"
       cy="1205.2668"
       fx="951.68713"
       fy="1205.2668"
       r="951.68701" />
    <linearGradient
       id="linearGradient3222">
      <stop
         style="stop-color:#000000;stop-opacity:1;"
         offset="0"
         id="stop3224" />
      <stop
         style="stop-color:#000000;stop-opacity:0;"
         offset="1"
         id="stop3226" />
    </linearGradient>
    <radialGradient
       r="951.68701"
       fy="2305.2668"
       fx="951.68713"
       cy="2305.2668"
       cx="951.68713"
       gradientTransform="matrix(1,0,0,1.2664529,0,-321.14689)"
       gradientUnits="userSpaceOnUse"
       id="radialGradient3232"
       xlink:href="#linearGradient3169"
       inkscape:collect="always" />
    <radialGradient
       r="951.68701"
       fy="1205.2668"
       fx="951.68713"
       cy="1205.2668"
       cx="951.68713"
       gradientTransform="matrix(1,0,0,1.2664529,0,-321.14689)"
       gradientUnits="userSpaceOnUse"
       id="radialGradient3234"
       xlink:href="#linearGradient3165"
       inkscape:collect="always" />
    <radialGradient
       inkscape:collect="always"
       xlink:href="#linearGradient3169"
       id="radialGradient4101"
       cx="194.54575"
       cy="361.16367"
       fx="194.54575"
       fy="361.16367"
       r="70.597672"
       gradientTransform="matrix(1,0,0,0.95908583,137.14286,74.776711)"
       gradientUnits="userSpaceOnUse" />
  </defs>
  <sodipodi:namedview
     id="base"
     pagecolor="#ffffff"
     bordercolor="#666666"
     borderopacity="1.0"
     inkscape:pageopacity="0.0"
     inkscape:pageshadow="2"
     inkscape:zoom="3.959798"
     inkscape:cx="89.129775"
     inkscape:cy="34.623372"
     inkscape:document-units="px"
     inkscape:current-layer="layer1"
     showgrid="false"
     fit-margin-top="0"
     fit-margin-left="0"
     fit-margin-right="0"
     fit-margin-bottom="0"
     inkscape:window-width="2560"
     inkscape:window-height="1582"
     inkscape:window-x="0"
     inkscape:window-y="0"
     inkscape:window-maximized="1" />
  <metadata
     id="metadata7">
    <rdf:RDF>
      <cc:Work
         rdf:about="">
        <dc:format>image/svg+xml</dc:format>
        <dc:type
           rdf:resource="http://purl.org/dc/dcmitype/StillImage" />
        <dc:title />
      </cc:Work>
    </rdf:RDF>
  </metadata>
  <g
     inkscape:label="Layer 1"
     inkscape:groupmode="layer"
     id="layer1"
     transform="translate(-261.09094,-353.45446)">
    <path
       style="fill:url(#radialGradient4101);fill-opacity:1"
       d="m 261.09094,466.61035 1.9122,-1.69399 39.0721,-36.4688 20.74158,22.05252 -40.71991,38.37279 z m 36.24983,1.34654 -14.08636,-15.38433 -15.33887,14.40857 14.50759,15.23741 z m 18.98704,-17.58715 -14.47613,-15.53942 -14.95191,14.42099 14.19976,15.37575 z m 43.2565,3.24033 -5.69326,-6.00917 -2.76929,1.85727 c -5.01515,3.36349 -10.61773,4.75193 -13.55344,3.35884 -0.90785,-0.4308 -11.20677,-10.85557 -16.46128,-16.61505 -6.3177,-6.92484 -17.77225,-18.68338 -18.08204,-21.53696 l -0.25491,-2.34789 -6.68224,-3.00173 -6.68224,-3.00173 -0.12416,-2.54849 c -0.24316,-4.99109 2.61694,-11.66135 7.10652,-16.57368 6.51922,-7.13306 14.23173,-10.81215 21.4071,-10.21178 l 2.49577,0.20881 2.34108,7.3087 2.34109,7.3087 2.0542,0.21626 c 1.12981,0.11895 2.29245,0.36702 2.58364,0.55127 0.29119,0.18424 11.17756,11.55849 16.63562,17.46044 5.67391,6.13537 16.35301,17.71615 16.74619,18.65715 1.36492,3.26672 -0.56522,9.34479 -4.44838,14.00803 -0.92939,1.1161 -1.6875,2.14976 -1.6847,2.29703 0.003,0.14726 2.44601,2.88431 5.42933,6.08233 2.98332,3.19801 5.42421,6.02814 5.42421,6.28919 0,0.66794 -0.91528,1.72591 -1.73982,2.01104 -0.50334,0.17406 -2.27007,-1.42112 -6.38899,-5.76858 z m -13.8944,-6.52384 c 0.96195,-0.49074 2.46683,-1.3673 3.34417,-1.94791 l 1.59519,-1.05564 -1.69025,-1.72225 c -1.71532,-1.74777 -2.09589,-2.99732 -1.1891,-3.90412 0.98407,-0.98406 2.33559,-0.53387 3.9423,1.31314 l 1.57825,1.81431 1.43638,-1.7099 c 1.7115,-2.03742 3.3933,-5.47555 3.39008,-6.9304 -0.0104,-4.68327 -7.01613,-2.68794 -13.36898,3.80766 -4.26282,4.35861 -6.32786,9.57528 -4.26584,10.77629 1.19252,0.69458 3.36009,0.51166 5.2278,-0.44118 z m -37.53066,-44.39022 c 2.23934,-2.70633 7.29399,-6.99375 10.13666,-8.59806 1.69887,-0.95877 2.21231,-1.46174 2.04152,-1.99985 -0.1255,-0.3954 -1.05734,-3.0661 -2.07077,-5.93487 l -1.84259,-5.21596 -1.60649,0.12825 c -4.1301,0.32972 -9.06228,2.86043 -13.29918,6.82384 -4.03277,3.77245 -7.7843,10.20829 -7.89014,13.53572 l -0.0463,1.4539 5.4085,2.47197 5.4085,2.47197 1.02919,-1.54008 c 0.56606,-0.84704 1.79503,-2.46562 2.73105,-3.59683 z m 32.91039,-10.47213 40.55794,-38.76942 c 7.09795,7.71166 14.5366,15.63755 20.65837,22.2503 l -40.53088,38.2414 z m 35.73645,1.02093 -14.2595,-15.3791 -15.29495,14.35785 14.65467,15.14661 z m 18.6801,-17.55816 -14.10162,-15.40128 -15.32812,14.3973 14.52992,15.24342 z"
       id="path3063"
       inkscape:connector-curvature="0"
       sodipodi:nodetypes="ccccccccccccccccscssascccssscccscasscsssssccssscssssscssscssccccsccccccccccccccccc" />
  </g>
</svg>
