<?xml version="1.0" encoding="UTF-8" standalone="no"?>
<!-- Created with Inkscape (http://www.inkscape.org/) -->

<svg
   xmlns:dc="http://purl.org/dc/elements/1.1/"
   xmlns:cc="http://creativecommons.org/ns#"
   xmlns:rdf="http://www.w3.org/1999/02/22-rdf-syntax-ns#"
   xmlns:svg="http://www.w3.org/2000/svg"
   xmlns="http://www.w3.org/2000/svg"
   xmlns:xlink="http://www.w3.org/1999/xlink"
   xmlns:sodipodi="http://sodipodi.sourceforge.net/DTD/sodipodi-0.dtd"
   xmlns:inkscape="http://www.inkscape.org/namespaces/inkscape"
   width="45.75"
   height="50.5"
   id="svg2"
   version="1.1"
   inkscape:version="0.48.3.1 r9886"
   sodipodi:docname="micropeak-nofont.svg">
  <defs
     id="defs4">
    <linearGradient
       id="linearGradient5343">
      <stop
         style="stop-color:#7200a4;stop-opacity:1;"
         offset="0"
         id="stop5345" />
      <stop
         style="stop-color:#da7000;stop-opacity:1;"
         offset="1"
         id="stop5347" />
    </linearGradient>
    <marker
       inkscape:stockid="Arrow2Send"
       orient="auto"
       refY="0"
       refX="0"
       id="Arrow2Send"
       style="overflow:visible">
      <path
         id="path3798"
         style="fill-rule:evenodd;stroke-width:0.625;stroke-linejoin:round"
         d="M 8.7185878,4.0337352 -2.2072895,0.01601326 8.7185884,-4.0017078 c -1.7454984,2.3720609 -1.7354408,5.6174519 -6e-7,8.035443 z"
         transform="matrix(-0.3,0,0,-0.3,0.69,0)"
         inkscape:connector-curvature="0" />
    </marker>
    <marker
       inkscape:stockid="Arrow1Send"
       orient="auto"
       refY="0"
       refX="0"
       id="Arrow1Send"
       style="overflow:visible">
      <path
         id="path3780"
         d="M 0,0 5,-5 -12.5,0 5,5 0,0 z"
         style="fill-rule:evenodd;stroke:#000000;stroke-width:1pt"
         transform="matrix(-0.2,0,0,-0.2,-1.2,0)"
         inkscape:connector-curvature="0" />
    </marker>
    <marker
       inkscape:stockid="Arrow2Mend"
       orient="auto"
       refY="0"
       refX="0"
       id="Arrow2Mend"
       style="overflow:visible">
      <path
         id="path3792"
         style="fill-rule:evenodd;stroke-width:0.625;stroke-linejoin:round"
         d="M 8.7185878,4.0337352 -2.2072895,0.01601326 8.7185884,-4.0017078 c -1.7454984,2.3720609 -1.7354408,5.6174519 -6e-7,8.035443 z"
         transform="scale(-0.6,-0.6)"
         inkscape:connector-curvature="0" />
    </marker>
    <marker
       inkscape:stockid="Arrow1Lend"
       orient="auto"
       refY="0"
       refX="0"
       id="Arrow1Lend"
       style="overflow:visible">
      <path
         id="path3768"
         d="M 0,0 5,-5 -12.5,0 5,5 0,0 z"
         style="fill-rule:evenodd;stroke:#000000;stroke-width:1pt"
         transform="matrix(-0.8,0,0,-0.8,-10,0)"
         inkscape:connector-curvature="0" />
    </marker>
    <marker
       inkscape:stockid="Arrow2Lend"
       orient="auto"
       refY="0"
       refX="0"
       id="Arrow2Lend"
       style="overflow:visible">
      <path
         id="path3786"
         style="fill-rule:evenodd;stroke-width:0.625;stroke-linejoin:round"
         d="M 8.7185878,4.0337352 -2.2072895,0.01601326 8.7185884,-4.0017078 c -1.7454984,2.3720609 -1.7354408,5.6174519 -6e-7,8.035443 z"
         transform="matrix(-1.1,0,0,-1.1,-1.1,0)"
         inkscape:connector-curvature="0" />
    </marker>
    <linearGradient
       inkscape:collect="always"
       xlink:href="#linearGradient5343"
       id="linearGradient5349"
       x1="255.48561"
       y1="275.90405"
       x2="280.61411"
       y2="275.90405"
       gradientUnits="userSpaceOnUse" />
  </defs>
  <sodipodi:namedview
     id="base"
     pagecolor="#ffffff"
     bordercolor="#666666"
     borderopacity="1.0"
     inkscape:pageopacity="0.0"
     inkscape:pageshadow="2"
     inkscape:zoom="16.321712"
     inkscape:cx="39.182144"
     inkscape:cy="19.678463"
     inkscape:document-units="px"
     inkscape:current-layer="layer1"
     showgrid="false"
     inkscape:window-width="1871"
     inkscape:window-height="1383"
     inkscape:window-x="653"
     inkscape:window-y="147"
     inkscape:window-maximized="0"
     fit-margin-top="0"
     fit-margin-left="0"
     fit-margin-right="0"
     fit-margin-bottom="0" />
  <metadata
     id="metadata7">
    <rdf:RDF>
      <cc:Work
         rdf:about="">
        <dc:format>image/svg+xml</dc:format>
        <dc:type
           rdf:resource="http://purl.org/dc/dcmitype/StillImage" />
        <dc:title />
      </cc:Work>
    </rdf:RDF>
  </metadata>
  <g
     inkscape:label="Layer 1"
     inkscape:groupmode="layer"
     id="layer1"
     transform="translate(-241.93841,-252.5196)">
    <g
       style="font-size:16px;font-style:normal;font-variant:normal;font-weight:normal;font-stretch:normal;line-height:125%;letter-spacing:0px;word-spacing:0px;fill:#7200a4;fill-opacity:1;stroke:none;font-family:Minion Pro;-inkscape-font-specification:Minion Pro"
       id="text2985">
      <path
         d="m 257.20241,268.30647 c 0,-1.07999 -0.396,-1.872 -1.584,-1.872 -1.188,0 -1.584,0.79201 -1.584,1.872 l 0,8.676 c 0,2.88 -2.052,5.112 -4.824,5.112 -3.06,0 -4.104,-1.872 -4.104,-5.076 l 0,-8.712 c 0,-1.07999 -0.396,-1.872 -1.584,-1.872 -1.188,0 -1.584,0.79201 -1.584,1.872 l 0,21.924 c 0,1.08 0.396,1.872 1.584,1.872 1.188,0 1.584,-0.792 1.584,-1.872 l 0,-6.156 c 0.792,0.612 2.088,0.972 3.564,0.972 2.304,0 4.428,-0.792 5.652,-2.988 l 0.072,0.072 0,1.26 c 0,0.864 0.54,1.44 1.404,1.44 0.864,0 1.404,-0.576 1.404,-1.44 l 0,-15.084"
         style="font-size:36px;font-weight:500;text-align:start;line-height:125%;writing-mode:lr-tb;text-anchor:start;fill:#7200a4;font-family:ITC Benguiat Gothic Std;-inkscape-font-specification:ITC Benguiat Gothic Std Medium"
         id="path3003"
         inkscape:connector-curvature="0" />
    </g>
    <path
       style="fill:none;stroke:url(#linearGradient5349);stroke-width:2.9000001;stroke-linecap:round;stroke-linejoin:miter;stroke-miterlimit:4;stroke-opacity:1;stroke-dasharray:none;marker-end:none"
       d="m 256.93561,290.70327 c 3.04022,-0.24413 4.30317,-2.66932 5.38268,-5.56604 1.68059,-4.50963 3.67214,-15.86904 8.62227,-20.55527 4.0668,-3.85 8.22354,-3.46656 8.22354,-3.46656"
       id="path2991"
       inkscape:connector-curvature="0"
       sodipodi:nodetypes="cssc" />
    <path
       sodipodi:type="star"
       style="fill:none;stroke:#da7000;stroke-width:1.10000002;stroke-linecap:round;stroke-linejoin:miter;stroke-miterlimit:4;stroke-opacity:1;stroke-dasharray:none"
       id="path5341"
       sodipodi:sides="5"
       sodipodi:cx="279.29056"
       sodipodi:cy="261.05426"
       sodipodi:r1="7.2514729"
       sodipodi:r2="3.6257365"
       sodipodi:arg1="1.0731354"
       sodipodi:arg2="1.7014539"
       inkscape:flatsided="false"
       inkscape:rounded="0"
       inkscape:randomized="0"
       d="m 282.7522,267.42614 -3.93403,-2.77705 -4.51792,1.66641 1.42544,-4.59964 -2.98096,-3.78185 4.815,-0.0657 2.67559,-4.00372 1.55039,4.55904 4.63457,1.30742 -3.85681,2.88333 z"
       inkscape:transform-center-x="-0.29194889"
       inkscape:transform-center-y="-0.40889198" />
    <g
       style="font-size:10px;font-style:normal;font-variant:normal;font-weight:bold;font-stretch:normal;text-align:start;line-height:125%;letter-spacing:0px;word-spacing:0px;writing-mode:lr-tb;text-anchor:start;fill:#7200a4;fill-opacity:1;stroke:none;font-family:ITC Benguiat Gothic Std;-inkscape-font-specification:ITC Benguiat Gothic Std Bold"
       id="text5351">
      <path
         d="m 245.09283,298.56959 c -0.41,-0.49999 -0.65,-1.14 -0.99,-1.97 -0.16,-0.38999 -0.4,-0.55 -0.8,-0.55 -0.77,0 -0.8,0.59001 -0.96,1.55 -0.19,1.13 -0.36,3.09001 -0.36,4.23 0,0.7 0.05,1.16 0.62,1.16 0.56,0 0.64,-0.38 0.64,-0.85 l 0,-1.58 c 0,-0.86999 0.1,-1.77 0.24,-2.69 l 0.02,0 c 0.16,0.51 0.89,2.18 1.59,2.18 0.7,0 1.43,-1.67 1.59,-2.18 l 0.02,0 c 0.14,0.92 0.24,1.82001 0.24,2.69 l 0,1.58 c 0,0.47 0.08,0.85 0.64,0.85 0.57,0 0.62,-0.46 0.62,-1.16 0,-1.13999 -0.17,-3.1 -0.36,-4.23 -0.16,-0.95999 -0.19,-1.55 -0.96,-1.55 -0.4,0 -0.64,0.16001 -0.8,0.55 -0.34,0.83 -0.58,1.47001 -0.99,1.97"
         id="path3006"
         inkscape:connector-curvature="0" />
      <path
         d="m 250.6994,298.46959 c 0,-0.35999 -0.19,-0.65 -0.6,-0.65 -0.41,0 -0.6,0.29001 -0.6,0.65 l 0,3.87 c 0,0.36 0.19,0.65 0.6,0.65 0.41,0 0.6,-0.29 0.6,-0.65 l 0,-3.87 m -0.6,-2.65 c -0.37,0 -0.66,0.26001 -0.66,0.74 0,0.48 0.29,0.74 0.66,0.74 0.37,0 0.66,-0.26 0.66,-0.74 0,-0.47999 -0.29,-0.74 -0.66,-0.74"
         id="path3008"
         inkscape:connector-curvature="0" />
      <path
         d="m 253.96283,297.87959 c -1.31999,0 -2.16,1.00001 -2.16,2.19 0,1.35 1.04001,2.89 3.46,2.89 0.94,0 1.2,-0.17 1.2,-0.56 0,-0.44999 -0.2,-0.58 -1.03,-0.58 -1.33999,0 -2.31,-0.58 -2.31,-1.78 0,-0.51999 0.38,-1.02 1.08,-1.02 l 1.51,0 c 0.34,0 0.61,-0.18 0.61,-0.57 0,-0.38999 -0.27,-0.57 -0.61,-0.57 l -1.75,0"
         id="path3010"
         inkscape:connector-curvature="0" />
      <path
         d="m 257.17283,302.30959 c 0,0.39 0.22,0.68 0.6,0.68 0.38,0 0.6,-0.29 0.6,-0.68 l 0,-2.19 c 0,-0.91999 0.29,-1.16 0.88,-1.16 0.43,0 0.69,-0.18 0.69,-0.56 0,-0.33999 -0.18,-0.58 -0.62,-0.58 -0.56,0 -0.94,0.24001 -1.02,0.79 l -0.02,0 -0.02,-0.31 c -0.04,-0.44999 -0.32,-0.48 -0.54,-0.48 -0.35,0 -0.55,0.20001 -0.55,0.61 l 0,3.88"
         id="path3012"
         inkscape:connector-curvature="0" />
      <path
         d="m 265.06268,300.41959 c 0,-1.45999 -0.9,-2.6 -2.46,-2.6 -1.56,0 -2.46,1.14001 -2.46,2.6 0,1.46 0.9,2.6 2.46,2.6 1.56,0 2.46,-1.14 2.46,-2.6 m -1.26,0 c 0,0.8 -0.38,1.52 -1.2,1.52 -0.82,0 -1.2,-0.72 -1.2,-1.52 0,-0.79999 0.38,-1.52 1.2,-1.52 0.82,0 1.2,0.72001 1.2,1.52"
         id="path3014"
         inkscape:connector-curvature="0" />
      <path
         d="m 266.07908,302.30959 c 0,0.38 0.2,0.68 0.63,0.68 0.43,0 0.63,-0.3 0.63,-0.68 l 0,-2.07 c 2.5,-0.67999 3.6,-1.44 3.6,-2.74 0,-0.83999 -0.54,-1.42 -1.58,-1.42 l -2.65,0 c -0.43,0 -0.63,0.22001 -0.63,0.54 l 0,5.69 m 1.26,-5.15 1.46,0 c 0.74,0 0.88,0.16 0.88,0.43 0,0.61 -1.68,1.31 -2.34,1.45 l 0,-1.88"
         id="path3016"
         inkscape:connector-curvature="0" />
      <path
         d="m 275.53549,302.95959 c 0.32,0 0.58,-0.17 0.58,-0.54 0,-0.36999 -0.26,-0.54 -0.58,-0.54 l -1.29,0 c -0.84,0 -1.55,-0.25 -1.63,-1.19 l 3.06,0 c 0.42,0 0.49,-0.25 0.49,-0.59 0,-1.16999 -0.69,-2.28 -2.36,-2.28 -1.53,0 -2.51,1.17001 -2.51,2.67 0,1.49 1,2.47 2.78,2.47 l 1.46,0 m -2.84,-3.17 c 0.14,-0.59999 0.64,-0.97 1.11,-0.97 0.47,0 0.97,0.37001 1.1,0.97 l -2.21,0"
         id="path3018"
         inkscape:connector-curvature="0" />
      <path
         d="m 281.2219,299.57959 c 0,-1.22999 -0.62,-1.7 -1.68,-1.7 l -1.75,0 c -0.33,0 -0.59,0.17001 -0.59,0.54 0,0.37 0.26,0.54 0.59,0.54 l 1.83,0 c 0.27,0 0.4,0.14001 0.4,0.65 l -0.42,0 c -1.17,0 -2.78,0.39001 -2.78,1.83 0,0.96 0.74,1.58 1.75,1.58 0.69,0 1.23,-0.18 1.55,-0.58 0.03,0.38 0.18,0.58 0.51,0.58 0.44,0 0.59,-0.25 0.59,-0.66 l 0,-2.78 m -1.14,1.57 c 0,0.57 -0.58,0.91 -1.14,0.91 -0.6,0 -0.92,-0.27 -0.92,-0.68 0,-0.46999 0.67,-0.87 2.06,-0.87 l 0,0.64"
         id="path3020"
         inkscape:connector-curvature="0" />
      <path
         d="m 283.9183,300.21959 c 1.34,0.08 1.87,1.30001 1.85,1.87 -0.02,0.63 0.19,0.9 0.6,0.9 0.47,0 0.6,-0.33 0.6,-0.66 0,-0.75999 -0.24,-2.1 -1.66,-2.61 l 0,-0.02 c 0.68,-0.2 1.32,-0.79 1.32,-1.39 0,-0.28999 -0.2,-0.49 -0.54,-0.49 -0.21,0 -0.43,0.12 -0.58,0.39 -0.3,0.56 -0.82,0.94 -1.59,1.01 l 0,-2.72 c 0,-0.35999 -0.19,-0.65 -0.6,-0.65 -0.41,0 -0.6,0.29001 -0.6,0.65 l 0,5.84 c 0,0.36 0.19,0.65 0.6,0.65 0.41,0 0.6,-0.29 0.6,-0.65 l 0,-2.12"
         id="path3022"
         inkscape:connector-curvature="0" />
    </g>
  </g>
</svg>
