<?xml version="1.0" encoding="UTF-8" standalone="no"?>

<svg
       xmlns:dc="http://purl.org/dc/elements/1.1/"
   xmlns:cc="http://creativecommons.org/ns#"
   xmlns:rdf="http://www.w3.org/1999/02/22-rdf-syntax-ns#"
   xmlns:svg="http://www.w3.org/2000/svg"
   xmlns="http://www.w3.org/2000/svg"
   width="3in"
   height="1.25in"
   viewBox="0 0 300 125"
   preserveaspectratio="none"
   id="svg2"
   version="1.1">
  <g transform="translate(12.5,12.5)"
     style="fill:none;stroke:#000000;stroke-width:1;stroke-linejoin:miter;font-size:24">
    <!-- outline -->
    <rect width="275" height="100" x="0" y="0"/>
    <!-- holes -->
    <path d="M37.5,12.5 m-6.25,0 a6.25,6.25,0,1,0,12.5,0 a6.25,6.25,0,1,0,-12.5,0 l12.5,0 m-6.25,-6.25 l0,12.5"/>
    <path d="M262.5,12.5 m-6.25,0 a6.25,6.25,0,1,0,12.5,0 a6.25,6.25,0,1,0,-12.5,0 l12.5,0 m-6.25,-6.25 l0,12.5"/>
    <path d="M37.5,87.5 m-6.25,0 a6.25,6.25,0,1,0,12.5,0 a6.25,6.25,0,1,0,-12.5,0 l12.5,0 m-6.25,-6.25 l0,12.5"/>
    <path d="M262.5,87.5 m-6.25,0 a6.25,6.25,0,1,0,12.5,0 a6.25,6.25,0,1,0,-12.5,0 l12.5,0 m-6.25,-6.25 l0,12.5"/>
    <!-- arrow -->
    <path d="M50,50 l165,0"/>
    <path style="fill:#000000;stroke:none" d="M215,45 l10,5 l-10,5 z"/>
    <!-- label -->
    <text x="137.5" y="45" style="fill:#000000;stroke:none" text-anchor="middle">TeleMetrum</text>
    <g transform="rotate(90)">
      <text x="50" y="-235" style="fill:#000000;stroke:none" text-anchor="middle">UP</text>
    </g>
  </g>
</svg>