/* XPM */
static char *icon[] = {
/* columns rows colors chars-per-pixel */
"26 32 137 2",
"   c #BB3D7F",
".  c #BC3F7C",
"X  c #BC3E7E",
"o  c #BF4178",
"O  c #BE4179",
"+  c #BD407A",
"@  c #BE407A",
"#  c #D95F46",
"$  c #D95F47",
"%  c #D55B4B",
"&  c #D75D49",
"*  c #D65C4B",
"=  c #D75C4B",
"-  c #D55A4E",
";  c #D85D49",
":  c #D85E48",
">  c #D85E49",
",  c #CD525B",
"<  c #CE525B",
"1  c #CE535B",
"2  c #CF5459",
"3  c #CB505D",
"4  c #CD515D",
"5  c #CC515E",
"6  c #CC505F",
"7  c #D05654",
"8  c #D15655",
"9  c #D05556",
"0  c #D05557",
"q  c #D35851",
"w  c #D35951",
"e  c #D25852",
"r  c #D25853",
"t  c #D45950",
"y  c #D05558",
"u  c #DB6241",
"i  c #DB6142",
"p  c #DC6340",
"a  c #D96044",
"s  c #DA6044",
"d  c #C64B66",
"f  c #CB4F60",
"g  c #CB4F61",
"h  c #C94E63",
"j  c #CA4E62",
"k  c #C84C65",
"l  c #C94D65",
"z  c #C84C66",
"x  c #C84C67",
"c  c #C2466E",
"v  c #C3476F",
"b  c #C4476E",
"n  c #C74B68",
"m  c #C74A69",
"M  c #C5496B",
"N  c #C6496A",
"B  c #C6496B",
"V  c #C4486D",
"C  c #CB5060",
"Z  c #C04471",
"A  c #C24571",
"S  c #C34670",
"D  c #C24671",
"F  c #C14473",
"G  c #C24572",
"H  c #C04375",
"J  c #C14474",
"K  c #B53885",
"L  c #B83B81",
"P  c #BA3C80",
"I  c #BA3C81",
"U  c #B83985",
"Y  c #B83A85",
"T  c #B63789",
"R  c #B4358B",
"E  c #B5378A",
"W  c #B3348E",
"Q  c #B3348F",
"!  c #B4358D",
"~  c #B63888",
"^  c #AF2F96",
"/  c #AE2F97",
"(  c #AB2C99",
")  c #A82A9D",
"_  c #AB2B9E",
"`  c #AC2C9C",
"'  c #AF3095",
"]  c #B23390",
"[  c #B03095",
"{  c #9E1DB2",
"}  c #9F1EB2",
"|  c #9B1BB5",
" . c #9D1CB5",
".. c #9A17BF",
"X. c #9B19BB",
"o. c #9C1ABA",
"O. c #9A19BC",
"+. c #9B19BC",
"@. c #A01EB3",
"#. c #A726A5",
"$. c #A625A6",
"%. c #A626A6",
"&. c #A929A0",
"*. c #A828A2",
"=. c #A423AB",
"-. c #A524A8",
";. c #A524AA",
":. c #A221AE",
">. c #8E0CCD",
",. c #910FCB",
"<. c #900DCE",
"1. c #9413C4",
"2. c #9613C6",
"3. c #9815C2",
"4. c #9310CA",
"5. c #9512C8",
"6. c #8F0CD2",
"7. c #8E0BD4",
"8. c #8D09D7",
"9. c #8603DE",
"0. c #8A05DD",
"q. c #8C08D8",
"w. c #8200E1",
"e. c #8200E2",
"r. c #8300E2",
"t. c #8300E3",
"y. c #8401E0",
"u. c #8602E0",
"i. c #8602E2",
"p. c #8400E4",
"a. c #8400E5",
"s. c #8500E5",
"d. c #8501E5",
"f. c #8601E5",
"g. c #8500E6",
"h. c #8804E0",
"j. c None",
/* pixels */
"j.j.j.j.j.j.j.j.j.j.j.j.j.j.j.j.j.j.j.j.j.j.j.j.j.j.",
"j.j.j.j.j.j.j.j.j.j.j.j.a.j.j.j.j.j.j.j.j.j.j.j.j.j.",
"j.j.j.j.j.j.j.j.j.j.j.j.a.g.j.j.j.j.j.j.j.j.j.j.j.j.",
"j.j.j.j.j.j.j.j.j.j.j.j.g.a.j.j.j.j.j.j.j.j.j.j.j.j.",
"j.j.j.j.j.j.j.j.j.j.j.a.a.a.j.j.j.j.j.j.j.j.j.j.j.j.",
"j.j.j.j.j.j.j.j.j.j.j.a.a.a.a.j.j.j.j.j.j.j.j.j.j.j.",
"j.j.j.j.j.j.j.j.j.j.j.g.a.a.a.j.j.j.j.j.j.j.j.j.j.j.",
"j.j.j.j.j.j.j.j.j.j.a.a.j.j.a.j.j.j.j.j.j.j.j.j.j.j.",
"j.j.j.j.j.j.j.j.j.j.a.a.j.j.a.a.j.j.j.j.j.j.j.j.j.j.",
"j.j.j.j.j.j.j.j.j.j.p.j.j.j.w.w.j.j.j.j.j.j.j.j.j.j.",
"j.j.j.j.j.j.j.j.j.j.j.j.j.j.j.j.j.j.j.j.j.j.j.j.j.j.",
"j.j.j.j.j.j.j.j.j.w.j.j.j.j.j.j.j.j.j.j.j.j.j.j.j.j.",
"j.j.j.j.j.j.j.j.j.a.a.j.j.j.j.a.a.j.j.j.j.j.j.j.j.j.",
"j.j.j.j.j.j.j.j.j.a.a.w.j.j.a.a.a.j.j.j.j.j.j.j.j.j.",
"j.j.j.j.j.j.j.j.p.a.a.a.j.a.a.a.a.j.j.j.j.j.j.j.j.j.",
"j.j.j.j.j.j.j.j.a.a.w.j.w.w.j.a.a.a.j.j.j.j.j.j.j.j.",
"j.j.j.j.j.j.j.j.a.a.p.j.j.j.j.p.g.a.j.j.j.j.j.j.j.j.",
"j.j.j.j.j.j.j.p.a.a.w.j.j.j.j.p.g.a.j.j.j.j.j.j.j.j.",
"j.j.j.j.j.j.j.a.g.a.p.j.j.j.j.p.f.a.a.j.j.j.j.j.j.j.",
"j.j.j.j.j.j.j.a.h.q.>.j.j.j.j.,.7.0.p.j.j.j.j.j.j.j.",
"j.j.j.j.j.j.9.q.4.3. .j.j.j.j.{ X.2.6.j.j.j.j.j.j.j.",
"j.j.j.j.j.j.<.3.@.#._ j.j.j.j.( *.:.X.2.j.j.j.j.j.j.",
"j.j.j.j.j.j.O.;.` ! K j.j.j.j.I E [ #.@.j.j.j.j.j.j.",
"j.j.j.j.j. .;.' Y o F j.j.j.j.v J P ] &.j.j.j.j.j.j.",
"j.j.j.j.j.$.' P F M k j.j.j.j.k M v O ! ( j.j.j.j.j.",
"j.j.j.j.j.' P F M j 3 j.j.j.j.1 6 z b O E j.j.j.j.j.",
"j.j.j.j.j.~ F n C 2 9 j.j.j.j.w 9 6 z V X j.j.j.j.j.",
"j.j.j.j.! O V C 2 w % j.j.j.j.% * 9 6 z F P j.j.j.j.",
"j.j.j.j.K S z y t : $ j.j.j.j.p s - 9 j M O j.j.j.j.",
"j.j.j./ + V C 9 * s j.j.j.j.j.j.p : t 1 z J E j.j.j.",
"j.j.:.] J z 2 t : j.j.j.j.j.j.j.j.s * 9 j b I *.j.j.",
"j.5.;.~ S z y t j.j.j.j.j.j.j.j.j.j.: r 6 M X _ X.j."
};
